<?xml version="1.0" encoding="UTF-8"?>
<svg xmlns="http://www.w3.org/2000/svg" width="2400" height="1350" viewBox="0 0 2400 1350" role="img" aria-labelledby="title">
  <title id="title">一金二银台面区域示意图</title>
  <defs>
    <linearGradient id="wood" x1="0" x2="1" y1="0" y2="1">
      <stop offset="0" stop-color="#c7a978"/>
      <stop offset=".55" stop-color="#a97c4f"/>
      <stop offset="1" stop-color="#7a5737"/>
    </linearGradient>
    <linearGradient id="steel" x1="0" x2="1" y1="0" y2="1">
      <stop offset="0" stop-color="#f1f2ef"/>
      <stop offset=".45" stop-color="#9fa4a2"/>
      <stop offset="1" stop-color="#666c6a"/>
    </linearGradient>
    <linearGradient id="paperWarm" x1="0" x2="1" y1="0" y2="1">
      <stop offset="0" stop-color="#fffdf8"/>
      <stop offset="1" stop-color="#f2ece0"/>
    </linearGradient>
    <linearGradient id="gold" x1="0" x2="1" y1="0" y2="1">
      <stop offset="0" stop-color="#fff3c3"/>
      <stop offset=".5" stop-color="#d3a64b"/>
      <stop offset="1" stop-color="#8d6a28"/>
    </linearGradient>
    <linearGradient id="silver" x1="0" x2="1" y1="0" y2="1">
      <stop offset="0" stop-color="#f4f5f2"/>
      <stop offset=".55" stop-color="#c7cbc9"/>
      <stop offset="1" stop-color="#7d8582"/>
    </linearGradient>
    <pattern id="tile" width="150" height="150" patternUnits="userSpaceOnUse">
      <rect width="150" height="150" fill="#d8d6cf"/>
      <path d="M150 0H0V150" fill="none" stroke="#bdbbb4" stroke-width="2"/>
    </pattern>
    <pattern id="stone" width="120" height="120" patternUnits="userSpaceOnUse">
      <rect width="120" height="120" fill="#f1eee7"/>
      <circle cx="22" cy="34" r="2.4" fill="#cbc1b0" opacity=".55"/>
      <circle cx="76" cy="18" r="1.8" fill="#b7ae9f" opacity=".45"/>
      <circle cx="104" cy="78" r="2.2" fill="#d2c6b5" opacity=".55"/>
      <circle cx="42" cy="96" r="1.8" fill="#b8b1a7" opacity=".4"/>
    </pattern>
    <filter id="softShadow" x="-20%" y="-20%" width="140%" height="150%">
      <feDropShadow dx="0" dy="16" stdDeviation="16" flood-color="#2d2a24" flood-opacity=".16"/>
    </filter>
    
  </defs>
  <rect width="2400" height="1350" fill="#fbfaf6"/>
  <rect x="170" y="430" width="2060" height="420" fill="url(#stone)" stroke="#b8b0a4" stroke-width="5"></rect><line x1="480" y1="270" x2="480" y2="850" stroke="#423f38" stroke-width="4" stroke-dasharray="16 18"></line><line x1="990" y1="270" x2="990" y2="850" stroke="#423f38" stroke-width="4" stroke-dasharray="16 18"></line><line x1="1460" y1="270" x2="1460" y2="850" stroke="#423f38" stroke-width="4" stroke-dasharray="16 18"></line><line x1="1940" y1="270" x2="1940" y2="850" stroke="#423f38" stroke-width="4" stroke-dasharray="16 18"></line><rect x="235" y="132" width="240" height="76" fill="url(#silver)" stroke="#7e8581" stroke-width="4" rx="14" filter="url(#softShadow)"></rect><path d="M257 132L237 154V186L257 208" fill="none" stroke="#fff8e5" stroke-width="3" opacity="0.6"></path><path d="M453 132L473 154V186L453 208" fill="none" stroke="#fff8e5" stroke-width="3" opacity="0.6"></path><text x="355" y="172" font-family="&quot;PingFang SC&quot;, &quot;Microsoft YaHei&quot;, &quot;Noto Sans CJK SC&quot;, sans-serif" font-size="38" font-weight="700" fill="#2c302d" text-anchor="middle" dominant-baseline="middle" letter-spacing="0">银一区</text><line x1="355" y1="235" x2="355" y2="295" stroke="#423f38" stroke-width="8" stroke-linecap="round"></line><path d="M331 279L355 313L379 279Z" fill="#423f38"></path><rect x="285" y="325" width="140" height="60" fill="#2d2d2a" rx="12"></rect><text x="355" y="356" font-family="&quot;PingFang SC&quot;, &quot;Microsoft YaHei&quot;, &quot;Noto Sans CJK SC&quot;, sans-serif" font-size="32" font-weight="650" fill="#fff" text-anchor="middle" dominant-baseline="middle" letter-spacing="0">装盘区</text><text x="740" y="355" font-family="&quot;PingFang SC&quot;, &quot;Microsoft YaHei&quot;, &quot;Noto Sans CJK SC&quot;, sans-serif" font-size="42" font-weight="600" fill="#2d2a24" text-anchor="middle" dominant-baseline="middle" letter-spacing="0">灶台区</text><rect x="560" y="545" width="430" height="210" fill="#171715" stroke="#555650" stroke-width="4" rx="10"></rect><circle cx="697.6" cy="645.8" r="54" fill="none" stroke="#8c8f8b" stroke-width="8"></circle><circle cx="697.6" cy="645.8" r="34" fill="#252521" stroke="#b6b7b1" stroke-width="4"></circle><line x1="629.6" y1="645.8" x2="765.6" y2="645.8" stroke="#777a75" stroke-width="8" stroke-linecap="round"></line><line x1="697.6" y1="577.8" x2="697.6" y2="713.8" stroke="#777a75" stroke-width="8" stroke-linecap="round"></line><circle cx="852.4000000000001" cy="645.8" r="54" fill="none" stroke="#8c8f8b" stroke-width="8"></circle><circle cx="852.4000000000001" cy="645.8" r="34" fill="#252521" stroke="#b6b7b1" stroke-width="4"></circle><line x1="784.4000000000001" y1="645.8" x2="920.4000000000001" y2="645.8" stroke="#777a75" stroke-width="8" stroke-linecap="round"></line><line x1="852.4000000000001" y1="577.8" x2="852.4000000000001" y2="713.8" stroke="#777a75" stroke-width="8" stroke-linecap="round"></line><circle cx="749.2" cy="717.2" r="13" fill="#d5d4cd"></circle><circle cx="800.8" cy="717.2" r="13" fill="#d5d4cd"></circle><rect x="1105" y="132" width="240" height="76" fill="url(#gold)" stroke="#9e772d" stroke-width="4" rx="14" filter="url(#softShadow)"></rect><path d="M1127 132L1107 154V186L1127 208" fill="none" stroke="#fff8e5" stroke-width="3" opacity="0.6"></path><path d="M1323 132L1343 154V186L1323 208" fill="none" stroke="#fff8e5" stroke-width="3" opacity="0.6"></path><text x="1225" y="172" font-family="&quot;PingFang SC&quot;, &quot;Microsoft YaHei&quot;, &quot;Noto Sans CJK SC&quot;, sans-serif" font-size="38" font-weight="700" fill="#4d3a16" text-anchor="middle" dominant-baseline="middle" letter-spacing="0">黄金区</text><line x1="1225" y1="235" x2="1225" y2="295" stroke="#423f38" stroke-width="8" stroke-linecap="round"></line><path d="M1201 279L1225 313L1249 279Z" fill="#423f38"></path><rect x="1145" y="325" width="160" height="60" fill="#2d2d2a" rx="12"></rect><text x="1225" y="356" font-family="&quot;PingFang SC&quot;, &quot;Microsoft YaHei&quot;, &quot;Noto Sans CJK SC&quot;, sans-serif" font-size="32" font-weight="650" fill="#fff" text-anchor="middle" dominant-baseline="middle" letter-spacing="0">备餐区</text><g transform="translate(1225 655) scale(1.1)"><rect x="-110" y="-70" width="220" height="140" fill="#d8b47d" stroke="#8e6740" stroke-width="5" rx="18"></rect><rect x="-96" y="-56" width="192" height="112" fill="none" stroke="#c89d62" stroke-width="3" rx="12"></rect><path d="M-82 -36C-30 -52,38 -12,86 -40" fill="none" stroke="#a77b4e" stroke-width="2" opacity="0.35"></path><path d="M-82 -11C-30 -24,38 0,86 -16" fill="none" stroke="#a77b4e" stroke-width="2" opacity="0.35"></path><path d="M-82 14C-30 4,38 12,86 8" fill="none" stroke="#a77b4e" stroke-width="2" opacity="0.35"></path><path d="M-82 39C-30 32,38 24,86 32" fill="none" stroke="#a77b4e" stroke-width="2" opacity="0.35"></path><ellipse cx="-50" cy="-8" rx="16" ry="8" fill="#80a464" transform="rotate(-18 -50 -8)"></ellipse><ellipse cx="-32" cy="-4" rx="16" ry="8" fill="#80a464" transform="rotate(-11 -32 -4)"></ellipse><ellipse cx="-14" cy="0" rx="16" ry="8" fill="#80a464" transform="rotate(-4 -14 0)"></ellipse><ellipse cx="4" cy="4" rx="16" ry="8" fill="#80a464" transform="rotate(3 4 4)"></ellipse><ellipse cx="22" cy="8" rx="16" ry="8" fill="#80a464" transform="rotate(10 22 8)"></ellipse><path d="M24 42L105-30" stroke="#d8d6d0" stroke-width="14" stroke-linecap="round"></path><path d="M58 10L116-42" stroke="#34332e" stroke-width="10" stroke-linecap="round"></path><circle cx="-145" cy="-55" r="28" fill="#f8f5ea" stroke="#c8c2b2" stroke-width="3"></circle><circle cx="-150" cy="-58" r="9" fill="#ad3f35"></circle><circle cx="-132" cy="-50" r="8" fill="#c64a3c"></circle><circle cx="-160" cy="-42" r="7" fill="#8a382f"></circle><circle cx="145" cy="-52" r="34" fill="#f8f5ea" stroke="#c8c2b2" stroke-width="3"></circle><circle cx="136" cy="-60" r="12" fill="#f3f0e0"></circle><circle cx="156" cy="-44" r="10" fill="#f3f0e0"></circle><path d="M118-70C150-102 185-88 194-50" fill="none" stroke="#5e7c4f" stroke-width="9" stroke-linecap="round"></path></g><text x="1655" y="355" font-family="&quot;PingFang SC&quot;, &quot;Microsoft YaHei&quot;, &quot;Noto Sans CJK SC&quot;, sans-serif" font-size="42" font-weight="600" fill="#2d2a24" text-anchor="middle" dominant-baseline="middle" letter-spacing="0">水槽区</text><rect x="1570" y="545" width="390" height="220" fill="#d9dad5" stroke="#7d817e" stroke-width="4" rx="12"></rect><rect x="1588" y="569" width="172" height="172" fill="url(#steel)" stroke="#6f7471" stroke-width="5" rx="18"></rect><rect x="1770" y="569" width="172" height="172" fill="url(#steel)" stroke="#6f7471" stroke-width="5" rx="18"></rect><circle cx="1757.2" cy="659.4" r="22" fill="#6b706d" stroke="#e5e5e0" stroke-width="5"></circle><circle cx="1757.2" cy="659.4" r="10" fill="#262723"></circle><path d="M1772.8 567C1796.2 497,1835.2 497,1839.1 571" fill="none" stroke="url(#steel)" stroke-width="12" stroke-linecap="round"></path><rect x="1835.2" y="605" width="14" height="58" fill="url(#steel)" rx="7"></rect><rect x="1955" y="132" width="240" height="76" fill="url(#silver)" stroke="#7e8581" stroke-width="4" rx="14" filter="url(#softShadow)"></rect><path d="M1977 132L1957 154V186L1977 208" fill="none" stroke="#fff8e5" stroke-width="3" opacity="0.6"></path><path d="M2173 132L2193 154V186L2173 208" fill="none" stroke="#fff8e5" stroke-width="3" opacity="0.6"></path><text x="2075" y="172" font-family="&quot;PingFang SC&quot;, &quot;Microsoft YaHei&quot;, &quot;Noto Sans CJK SC&quot;, sans-serif" font-size="38" font-weight="700" fill="#2c302d" text-anchor="middle" dominant-baseline="middle" letter-spacing="0">银二区</text><line x1="2075" y1="235" x2="2075" y2="295" stroke="#423f38" stroke-width="8" stroke-linecap="round"></line><path d="M2051 279L2075 313L2099 279Z" fill="#423f38"></path><rect x="2010" y="325" width="130" height="60" fill="#2d2d2a" rx="12"></rect><text x="2075" y="356" font-family="&quot;PingFang SC&quot;, &quot;Microsoft YaHei&quot;, &quot;Noto Sans CJK SC&quot;, sans-serif" font-size="32" font-weight="650" fill="#fff" text-anchor="middle" dominant-baseline="middle" letter-spacing="0">沥水区</text><rect x="1970" y="540" width="210" height="230" fill="#a4a59f" stroke="#6f7471" stroke-width="5" rx="10"></rect><line x1="1995" y1="560" x2="1995" y2="748" stroke="#686c69" stroke-width="5"></line><line x1="2015" y1="560" x2="2015" y2="748" stroke="#686c69" stroke-width="5"></line><line x1="2035" y1="560" x2="2035" y2="748" stroke="#686c69" stroke-width="5"></line><line x1="2055" y1="560" x2="2055" y2="748" stroke="#686c69" stroke-width="5"></line><line x1="2075" y1="560" x2="2075" y2="748" stroke="#686c69" stroke-width="5"></line><line x1="2095" y1="560" x2="2095" y2="748" stroke="#686c69" stroke-width="5"></line><line x1="2115" y1="560" x2="2115" y2="748" stroke="#686c69" stroke-width="5"></line><line x1="2135" y1="560" x2="2135" y2="748" stroke="#686c69" stroke-width="5"></line><line x1="2155" y1="560" x2="2155" y2="748" stroke="#686c69" stroke-width="5"></line><ellipse cx="2028" cy="650" rx="21" ry="72" fill="#f7f5ef" stroke="#cfc9ba" stroke-width="3"></ellipse><ellipse cx="2062" cy="650" rx="21" ry="72" fill="#f7f5ef" stroke="#cfc9ba" stroke-width="3"></ellipse><ellipse cx="2096" cy="650" rx="21" ry="72" fill="#f7f5ef" stroke="#cfc9ba" stroke-width="3"></ellipse><ellipse cx="2130" cy="650" rx="21" ry="72" fill="#f7f5ef" stroke="#cfc9ba" stroke-width="3"></ellipse><path d="M1185 850C1250 1020 1378 1028 1440 850" fill="#f8f8f5" stroke="#d0d0ca" stroke-width="5"></path><circle cx="1308" cy="1028" r="100" fill="#4a3728"></circle><text x="1200" y="1085" font-family="&quot;PingFang SC&quot;, &quot;Microsoft YaHei&quot;, &quot;Noto Sans CJK SC&quot;, sans-serif" font-size="42" font-weight="520" fill="#536d57" text-anchor="middle" dominant-baseline="middle" letter-spacing="0">备餐区是厨房动作的中心，越清楚越顺手。</text>
</svg>
