<?xml version="1.0" encoding="UTF-8"?>
<svg xmlns="http://www.w3.org/2000/svg" width="1200" height="1500" viewBox="0 0 1200 1500" role="img" aria-labelledby="title">
  <title id="title">灶台旁银一区尺寸</title>
  <defs>
    <linearGradient id="wood" x1="0" x2="1" y1="0" y2="1">
      <stop offset="0" stop-color="#c7a978"/>
      <stop offset=".55" stop-color="#a97c4f"/>
      <stop offset="1" stop-color="#7a5737"/>
    </linearGradient>
    <linearGradient id="steel" x1="0" x2="1" y1="0" y2="1">
      <stop offset="0" stop-color="#f1f2ef"/>
      <stop offset=".45" stop-color="#9fa4a2"/>
      <stop offset="1" stop-color="#666c6a"/>
    </linearGradient>
    <linearGradient id="paperWarm" x1="0" x2="1" y1="0" y2="1">
      <stop offset="0" stop-color="#fffdf8"/>
      <stop offset="1" stop-color="#f2ece0"/>
    </linearGradient>
    <linearGradient id="gold" x1="0" x2="1" y1="0" y2="1">
      <stop offset="0" stop-color="#fff3c3"/>
      <stop offset=".5" stop-color="#d3a64b"/>
      <stop offset="1" stop-color="#8d6a28"/>
    </linearGradient>
    <linearGradient id="silver" x1="0" x2="1" y1="0" y2="1">
      <stop offset="0" stop-color="#f4f5f2"/>
      <stop offset=".55" stop-color="#c7cbc9"/>
      <stop offset="1" stop-color="#7d8582"/>
    </linearGradient>
    <pattern id="tile" width="150" height="150" patternUnits="userSpaceOnUse">
      <rect width="150" height="150" fill="#d8d6cf"/>
      <path d="M150 0H0V150" fill="none" stroke="#bdbbb4" stroke-width="2"/>
    </pattern>
    <pattern id="stone" width="120" height="120" patternUnits="userSpaceOnUse">
      <rect width="120" height="120" fill="#f1eee7"/>
      <circle cx="22" cy="34" r="2.4" fill="#cbc1b0" opacity=".55"/>
      <circle cx="76" cy="18" r="1.8" fill="#b7ae9f" opacity=".45"/>
      <circle cx="104" cy="78" r="2.2" fill="#d2c6b5" opacity=".55"/>
      <circle cx="42" cy="96" r="1.8" fill="#b8b1a7" opacity=".4"/>
    </pattern>
    <filter id="softShadow" x="-20%" y="-20%" width="140%" height="150%">
      <feDropShadow dx="0" dy="16" stdDeviation="16" flood-color="#2d2a24" flood-opacity=".16"/>
    </filter>
    
  </defs>
  <rect width="1200" height="1500" fill="#fbfaf6"/>
  <rect x="0" y="0" width="1200" height="1500" fill="#fbfaf6"></rect><text x="600" y="120" font-family="&quot;PingFang SC&quot;, &quot;Microsoft YaHei&quot;, &quot;Noto Sans CJK SC&quot;, sans-serif" font-size="70" font-weight="750" fill="#2d2a24" text-anchor="middle" dominant-baseline="middle" letter-spacing="0">银一区</text><text x="600" y="210" font-family="&quot;PingFang SC&quot;, &quot;Microsoft YaHei&quot;, &quot;Noto Sans CJK SC&quot;, sans-serif" font-size="34" font-weight="480" fill="#6a665e" text-anchor="middle" dominant-baseline="hanging" letter-spacing="0">灶台到墙边的位置。</text><text x="600" y="258.28" font-family="&quot;PingFang SC&quot;, &quot;Microsoft YaHei&quot;, &quot;Noto Sans CJK SC&quot;, sans-serif" font-size="34" font-weight="480" fill="#6a665e" text-anchor="middle" dominant-baseline="hanging" letter-spacing="0">提前留出空间，炒完菜能装盘。</text><rect x="80" y="405" width="1040" height="620" fill="url(#stone)" stroke="#b8b0a4" stroke-width="5" rx="12"></rect><rect x="120" y="210" width="120" height="980" fill="#d2d1ca"></rect><g transform="rotate(90 835 715)"><rect x="630" y="510" width="410" height="410" fill="#171715" stroke="#555650" stroke-width="4" rx="10"></rect><circle cx="761.2" cy="706.8" r="54" fill="none" stroke="#8c8f8b" stroke-width="8"></circle><circle cx="761.2" cy="706.8" r="34" fill="#252521" stroke="#b6b7b1" stroke-width="4"></circle><line x1="693.2" y1="706.8" x2="829.2" y2="706.8" stroke="#777a75" stroke-width="8" stroke-linecap="round"></line><line x1="761.2" y1="638.8" x2="761.2" y2="774.8" stroke="#777a75" stroke-width="8" stroke-linecap="round"></line><circle cx="908.8" cy="706.8" r="54" fill="none" stroke="#8c8f8b" stroke-width="8"></circle><circle cx="908.8" cy="706.8" r="34" fill="#252521" stroke="#b6b7b1" stroke-width="4"></circle><line x1="840.8" y1="706.8" x2="976.8" y2="706.8" stroke="#777a75" stroke-width="8" stroke-linecap="round"></line><line x1="908.8" y1="638.8" x2="908.8" y2="774.8" stroke="#777a75" stroke-width="8" stroke-linecap="round"></line><circle cx="810.4" cy="846.2" r="13" fill="#d5d4cd"></circle><circle cx="859.6" cy="846.2" r="13" fill="#d5d4cd"></circle></g><circle cx="520" cy="640" r="72" fill="#f9f7f1" stroke="#c5bfb2" stroke-width="4"></circle><rect x="320" y="280" width="270" height="820" fill="#ece2c2" opacity="0.72"></rect><g transform="translate(440 865) scale(0.65)"><rect x="-110" y="-70" width="220" height="140" fill="#d8b47d" stroke="#8e6740" stroke-width="5" rx="18"></rect><rect x="-96" y="-56" width="192" height="112" fill="none" stroke="#c89d62" stroke-width="3" rx="12"></rect><path d="M-82 -36C-30 -52,38 -12,86 -40" fill="none" stroke="#a77b4e" stroke-width="2" opacity="0.35"></path><path d="M-82 -11C-30 -24,38 0,86 -16" fill="none" stroke="#a77b4e" stroke-width="2" opacity="0.35"></path><path d="M-82 14C-30 4,38 12,86 8" fill="none" stroke="#a77b4e" stroke-width="2" opacity="0.35"></path><path d="M-82 39C-30 32,38 24,86 32" fill="none" stroke="#a77b4e" stroke-width="2" opacity="0.35"></path><ellipse cx="-50" cy="-8" rx="16" ry="8" fill="#80a464" transform="rotate(-18 -50 -8)"></ellipse><ellipse cx="-32" cy="-4" rx="16" ry="8" fill="#80a464" transform="rotate(-11 -32 -4)"></ellipse><ellipse cx="-14" cy="0" rx="16" ry="8" fill="#80a464" transform="rotate(-4 -14 0)"></ellipse><ellipse cx="4" cy="4" rx="16" ry="8" fill="#80a464" transform="rotate(3 4 4)"></ellipse><ellipse cx="22" cy="8" rx="16" ry="8" fill="#80a464" transform="rotate(10 22 8)"></ellipse><path d="M24 42L105-30" stroke="#d8d6d0" stroke-width="14" stroke-linecap="round"></path><path d="M58 10L116-42" stroke="#34332e" stroke-width="10" stroke-linecap="round"></path><circle cx="-145" cy="-55" r="28" fill="#f8f5ea" stroke="#c8c2b2" stroke-width="3"></circle><circle cx="-150" cy="-58" r="9" fill="#ad3f35"></circle><circle cx="-132" cy="-50" r="8" fill="#c64a3c"></circle><circle cx="-160" cy="-42" r="7" fill="#8a382f"></circle><circle cx="145" cy="-52" r="34" fill="#f8f5ea" stroke="#c8c2b2" stroke-width="3"></circle><circle cx="136" cy="-60" r="12" fill="#f3f0e0"></circle><circle cx="156" cy="-44" r="10" fill="#f3f0e0"></circle><path d="M118-70C150-102 185-88 194-50" fill="none" stroke="#5e7c4f" stroke-width="9" stroke-linecap="round"></path></g><line x1="260" y1="1120" x2="930" y2="1120" stroke="#bca247" stroke-width="5"></line><line x1="260" y1="1098" x2="260" y2="1142" stroke="#bca247" stroke-width="5"></line><line x1="930" y1="1098" x2="930" y2="1142" stroke="#bca247" stroke-width="5"></line><text x="595" y="1178" font-family="&quot;PingFang SC&quot;, &quot;Microsoft YaHei&quot;, &quot;Noto Sans CJK SC&quot;, sans-serif" font-size="52" font-weight="650" fill="#bca247" text-anchor="middle" dominant-baseline="middle" letter-spacing="0">≥300mm</text><line x1="260" y1="410" x2="260" y2="1165" stroke="#bca247" stroke-width="4" stroke-dasharray="14 14"></line><line x1="930" y1="410" x2="930" y2="1165" stroke="#bca247" stroke-width="4" stroke-dasharray="14 14"></line>
</svg>
